<svg xmlns="http://www.w3.org/2000/svg" height="36" viewBox="0 0 435 147" fill="none">
    <path
        d="M113.166 66.5351C113.063 67.5226 112.759 68.6396 111.892 69.2294C111.463 69.5243 111.039 69.5779 110.923 69.6047C96.3435 73.0183 81.7686 76.4677 67.1937 79.9036C66.9256 79.9662 66.0319 80.2924 65.1651 79.9126C64.276 79.5238 63.8873 78.6079 63.7532 78.3085C63.0026 76.6107 60.4558 72.0845 56.8679 65.8292C54.5892 69.9577 52.3105 74.0817 50.0317 78.2102C49.8039 78.7687 49.3749 79.5507 48.5662 79.9126C47.6234 80.3326 46.6315 79.9349 46.3411 79.8634C31.9717 76.4721 17.6024 73.0719 3.22855 69.7075C2.10259 69.4438 1.19107 68.997 0.574478 68.0141C0.574478 67.5181 0.574478 67.0266 0.574478 66.5307C0.721925 66.1375 0.896176 65.7532 1.01681 65.3511C2.50469 60.4541 4.00599 55.566 5.45365 50.66C5.66365 49.9496 5.96748 49.4134 6.40535 49.0113C7.08897 48.3902 7.90217 48.2651 8.14792 48.2204C9.74302 47.9479 28.4911 44.3064 54.3122 39.3066C54.9868 39.1502 55.8403 39.0162 56.8322 39.0028C57.9626 38.9894 58.9232 39.1368 59.656 39.3066C85.4369 44.3377 104.163 48.0015 105.691 48.2651C105.936 48.3053 106.741 48.4349 107.406 49.0604C107.8 49.4313 108.077 49.9228 108.26 50.5617C108.966 53.0013 109.708 55.4319 110.454 57.8581C111.343 60.7534 112.259 63.6443 113.166 66.5351ZM93.2337 50.8655C93.2247 50.8075 93.2203 50.7538 93.2113 50.6958C92.9075 50.6243 92.6081 50.5483 92.3043 50.4902C81.4469 48.4081 70.5939 46.317 59.732 44.2662C58.4362 44.0204 57.0377 43.7166 55.7777 43.9445C47.4 45.4547 39.0492 47.0989 30.6894 48.703C27.3026 49.3509 23.9158 50.0077 20.5334 50.66C20.8194 50.9147 21.1053 51.0085 21.4047 51.0711C32.7447 53.4258 44.0847 55.7894 55.4337 58.1128C56.3049 58.2915 57.2656 58.3451 58.1279 58.1709C69.5126 55.8475 80.8839 53.4704 92.2641 51.1024C92.5858 51.0353 92.9075 50.946 93.2337 50.8655Z"
        fill="#292626" />
    <path
        d="M54.0039 123.785C51.3856 123.088 48.7762 122.359 46.149 121.702C33.339 118.49 20.5245 115.3 7.71005 112.101C6.89239 111.895 6.32942 111.591 5.98985 111.122C5.56091 110.528 5.57882 109.84 5.58329 109.607C5.6101 108.079 5.61452 94.2327 5.64132 75.1629C25.6137 79.908 40.3897 83.2769 45.2197 84.4029C46.0105 84.5861 48.0658 85.0686 50.3088 84.2599C52.5875 83.4333 54.0397 81.6416 54.911 80.2252C54.6116 94.7465 54.3078 109.263 54.0039 123.785Z"
        fill="#292626" />
    <path
        d="M59.3075 123.785C59.3209 109.094 59.3343 94.407 59.3477 79.716C59.8928 81.0117 61.0545 83.1966 63.3288 84.2109C65.3171 85.0955 67.2786 84.6889 68.199 84.4879C72.1086 83.6389 87.3626 80.136 108.166 75.1138C91.8798 91.3375 75.5937 107.561 59.3075 123.785Z"
        fill="#292626" />
    <path
        d="M57.4219 37.7874C57.8687 38.0867 62.8953 26.6931 72.39 20.268C89.4447 8.73142 126.968 9.13355 142.146 35.2361C153.982 55.5927 148.754 85.8283 129.724 96.7081C118.465 103.147 105.923 100.783 100.579 99.4157C100.526 97.557 100.472 95.6982 100.418 93.8395C100.365 93.7189 99.967 92.8431 98.984 92.5661C98.1977 92.3472 97.3398 92.5929 96.7545 93.2051C83.4753 106.06 73.8868 115.541 72.5464 117.096C71.6751 118.106 71.5813 118.905 71.5902 119.325C71.6081 120.112 71.9968 120.764 72.3855 121.238C80.4549 129.517 88.5243 137.801 96.5936 146.08C97.246 146.84 98.3317 147.028 99.1404 146.558C99.8375 146.156 100.226 145.33 100.097 144.49C100.097 143.002 100.097 141.518 100.097 140.031C105.829 141.322 115.337 142.698 126.691 140.67C130.015 140.075 148.383 136.528 163.481 120.921C187.984 95.5955 182.287 60.8159 181.956 58.9706C177.774 35.8393 161.64 12.8778 136.092 4.34375C112.362 -3.58264 85.5128 2.60567 70.4776 17.404C61.7917 25.9559 56.9751 37.488 57.4219 37.7874Z"
        fill="#1476BC" />
    <path
        d="M246.842 37.041C246.842 41.6789 246.266 45.8253 245.113 49.4802C243.96 53.1395 242.249 56.2404 239.975 58.7872C237.7 61.3384 234.885 63.2776 231.53 64.618C228.174 65.9585 224.296 66.6287 219.886 66.6287C215.539 66.6287 211.745 66.0612 208.501 64.9219C205.262 63.787 202.563 62.0489 200.401 59.7165C198.238 57.3842 196.621 54.4174 195.539 50.8161C194.458 47.2148 193.918 42.9523 193.918 38.0284C193.918 33.5067 194.494 29.4408 195.647 25.8261C196.799 22.2114 198.511 19.1374 200.785 16.604C203.059 14.0706 205.874 12.1269 209.23 10.7731C212.585 9.41928 216.481 8.7446 220.914 8.7446C225.145 8.7446 228.885 9.30759 232.124 10.4291C235.364 11.5506 238.071 13.2797 240.247 15.612C242.423 17.9444 244.063 20.8889 245.171 24.4455C246.288 28.0065 246.842 32.2065 246.842 37.041ZM234.921 37.6487C234.921 34.7131 234.689 32.0412 234.229 29.6374C233.768 27.2335 232.982 25.1737 231.874 23.458C230.766 21.7467 229.287 20.4197 227.446 19.4859C225.601 18.5521 223.3 18.0829 220.534 18.0829C217.741 18.0829 215.409 18.6101 213.537 19.6601C211.665 20.7101 210.155 22.1176 209.002 23.8735C207.849 25.6295 207.036 27.6804 206.562 30.0306C206.089 32.3763 205.847 34.8606 205.847 37.4833C205.847 40.535 206.08 43.2785 206.54 45.7136C207 48.1487 207.778 50.2263 208.872 51.9555C209.967 53.6846 211.437 55.0027 213.278 55.9097C215.119 56.8167 217.438 57.268 220.235 57.268C223.027 57.268 225.359 56.7497 227.232 55.7131C229.104 54.6765 230.614 53.2646 231.767 51.4818C232.92 49.6946 233.733 47.617 234.206 45.2399C234.684 42.854 234.921 40.325 234.921 37.6487Z"
        fill="#292626" />
    <path
        d="M293.194 44.3419C293.194 47.7689 292.828 50.8563 292.095 53.6087C291.362 56.361 290.285 58.6978 288.878 60.628C287.466 62.5582 285.71 64.0416 283.61 65.0782C281.505 66.1148 279.102 66.6331 276.394 66.6331C275.272 66.6331 274.24 66.5259 273.307 66.307C272.373 66.0925 271.466 65.7619 270.585 65.3151C269.705 64.8682 268.834 64.3142 267.972 63.6529C267.109 62.9916 266.216 62.2142 265.295 61.3206V79.4655C265.295 79.7514 265.21 80.0106 265.036 80.2429C264.862 80.4708 264.567 80.6674 264.151 80.8238C263.736 80.9802 263.182 81.1053 262.489 81.1902C261.797 81.2751 260.921 81.3197 259.853 81.3197C258.785 81.3197 257.91 81.2751 257.217 81.1902C256.524 81.1053 255.97 80.9802 255.555 80.8238C255.135 80.6674 254.84 80.4708 254.67 80.2429C254.496 80.0106 254.411 79.7514 254.411 79.4655V25.6384C254.411 25.3525 254.482 25.0978 254.625 24.8833C254.768 24.6689 255.019 24.4857 255.381 24.3427C255.738 24.1997 256.216 24.0925 256.806 24.0165C257.396 23.945 258.137 23.9093 259.031 23.9093C259.893 23.9093 260.622 23.945 261.211 24.0165C261.801 24.088 262.275 24.1952 262.637 24.3427C262.994 24.4857 263.249 24.6689 263.392 24.8833C263.535 25.0978 263.606 25.3525 263.606 25.6384V30.1735C264.728 29.0208 265.831 28.0065 266.913 27.1263C267.994 26.2461 269.093 25.5133 270.219 24.9235C271.341 24.3338 272.502 23.8959 273.695 23.6055C274.888 23.3195 276.166 23.1721 277.52 23.1721C280.344 23.1721 282.748 23.7261 284.736 24.8342C286.724 25.9423 288.342 27.4614 289.597 29.3916C290.848 31.3218 291.764 33.5693 292.341 36.1295C292.904 38.6987 293.194 41.4331 293.194 44.3419ZM281.876 45.1193C281.876 43.4795 281.751 41.9023 281.51 40.3876C281.264 38.8774 280.849 37.528 280.259 36.3484C279.669 35.1689 278.892 34.2261 277.927 33.5201C276.961 32.8142 275.76 32.4612 274.321 32.4612C273.601 32.4612 272.887 32.5684 272.181 32.7874C271.475 33.0018 270.755 33.3548 270.022 33.8463C269.29 34.3378 268.535 34.9678 267.753 35.7452C266.971 36.5227 266.153 37.4878 265.291 38.6406V51.3389C266.819 53.2691 268.271 54.757 269.652 55.8114C271.032 56.8614 272.475 57.3887 273.972 57.3887C275.384 57.3887 276.586 57.0312 277.578 56.3074C278.57 55.588 279.383 54.6453 280.018 53.4791C280.652 52.3129 281.121 50.9948 281.421 49.5248C281.724 48.0593 281.876 46.5893 281.876 45.1193Z"
        fill="#292626" />
    <path
        d="M337.468 43.7833C337.468 45.1104 337.173 46.0889 336.584 46.7189C335.994 47.3533 335.181 47.6706 334.144 47.6706H310.687C310.687 49.3104 310.883 50.8027 311.267 52.1431C311.656 53.4836 312.277 54.6185 313.126 55.5568C313.975 56.4906 315.07 57.2055 316.41 57.697C317.751 58.1884 319.355 58.4297 321.227 58.4297C323.126 58.4297 324.797 58.2957 326.235 58.0187C327.674 57.7461 328.921 57.4423 329.971 57.1116C331.021 56.781 331.892 56.4772 332.585 56.2046C333.277 55.9321 333.836 55.7936 334.269 55.7936C334.528 55.7936 334.743 55.8427 334.917 55.9455C335.091 56.0482 335.234 56.227 335.35 56.4861C335.467 56.7453 335.542 57.1116 335.587 57.5853C335.632 58.0589 335.65 58.6576 335.65 59.377C335.65 60.0114 335.636 60.5521 335.605 60.9989C335.574 61.4457 335.534 61.8255 335.475 62.1427C335.417 62.4599 335.332 62.728 335.216 62.9425C335.1 63.157 334.948 63.367 334.761 63.568C334.573 63.7691 334.064 64.0416 333.228 64.3902C332.392 64.7342 331.329 65.0738 330.033 65.4044C328.738 65.735 327.254 66.021 325.583 66.2668C323.912 66.5125 322.129 66.6331 320.226 66.6331C316.799 66.6331 313.796 66.1997 311.218 65.3374C308.64 64.475 306.487 63.1614 304.762 61.4055C303.033 59.6495 301.746 57.4333 300.897 54.7525C300.048 52.0761 299.624 48.935 299.624 45.3338C299.624 41.9067 300.07 38.8193 300.964 36.0669C301.858 33.3191 303.153 30.9867 304.851 29.0699C306.549 27.1531 308.618 25.6921 311.048 24.6867C313.484 23.6769 316.222 23.1765 319.279 23.1765C322.505 23.1765 325.261 23.6501 327.549 24.6018C329.837 25.5536 331.718 26.8716 333.188 28.5561C334.658 30.2406 335.735 32.2333 336.427 34.5389C337.12 36.8444 337.464 39.3465 337.464 42.0542V43.7833H337.468ZM326.928 40.6735C327.013 37.6218 326.401 35.2225 325.092 33.4799C323.782 31.7374 321.758 30.8661 319.024 30.8661C317.643 30.8661 316.437 31.1252 315.418 31.6435C314.395 32.1618 313.546 32.8589 312.871 33.7391C312.192 34.6193 311.674 35.6559 311.317 36.8489C310.955 38.0463 310.749 39.3197 310.691 40.6735H326.928Z"
        fill="#292626" />
    <path
        d="M383.217 64.1712C383.217 64.4616 383.132 64.7119 382.958 64.9263C382.784 65.1408 382.498 65.324 382.095 65.467C381.693 65.6099 381.139 65.7172 380.433 65.7887C379.727 65.8602 378.856 65.8959 377.82 65.8959C376.752 65.8959 375.867 65.8602 375.161 65.7887C374.455 65.7172 373.901 65.6099 373.499 65.467C373.097 65.324 372.806 65.1453 372.637 64.9263C372.462 64.7119 372.377 64.4572 372.377 64.1712V42.1838C372.377 40.3116 372.239 38.8416 371.966 37.7782C371.694 36.7148 371.296 35.7989 370.778 35.0348C370.26 34.2708 369.589 33.681 368.767 33.2655C367.945 32.8499 366.989 32.6399 365.894 32.6399C364.514 32.6399 363.115 33.1448 361.703 34.1501C360.291 35.1599 358.821 36.6255 357.298 38.5557V64.1712C357.298 64.4616 357.213 64.7119 357.038 64.9263C356.864 65.1408 356.569 65.324 356.154 65.467C355.738 65.6099 355.184 65.7172 354.492 65.7887C353.799 65.8602 352.923 65.8959 351.855 65.8959C350.788 65.8959 349.912 65.8602 349.219 65.7887C348.527 65.7172 347.973 65.6099 347.557 65.467C347.137 65.324 346.842 65.1453 346.672 64.9263C346.498 64.7119 346.413 64.4572 346.413 64.1712V25.6384C346.413 25.3525 346.485 25.0978 346.628 24.8833C346.771 24.6689 347.03 24.4857 347.405 24.3427C347.781 24.1997 348.263 24.0925 348.853 24.0165C349.443 23.945 350.184 23.9093 351.078 23.9093C351.998 23.9093 352.762 23.945 353.366 24.0165C353.969 24.088 354.438 24.1952 354.769 24.3427C355.099 24.4857 355.336 24.6689 355.484 24.8833C355.627 25.0978 355.698 25.3525 355.698 25.6384V30.0887C357.829 27.7831 359.996 26.0584 362.199 24.9057C364.402 23.7529 366.698 23.1765 369.089 23.1765C371.707 23.1765 373.919 23.6099 375.72 24.4723C377.52 25.3346 378.972 26.5097 380.08 27.9931C381.188 29.4765 381.988 31.2101 382.48 33.1984C382.967 35.1867 383.212 37.5772 383.212 40.3697V64.1712H383.217Z"
        fill="#292626" />
    <path
        d="M246.015 129.955C246.015 130.245 245.953 130.504 245.823 130.732C245.698 130.965 245.466 131.152 245.131 131.295C244.796 131.438 244.353 131.554 243.799 131.639C243.245 131.724 242.544 131.769 241.69 131.769C240.859 131.769 240.171 131.724 239.617 131.639C239.063 131.554 238.625 131.438 238.304 131.295C237.982 131.152 237.749 130.965 237.611 130.732C237.472 130.504 237.405 130.245 237.405 129.955V84.4697H237.338L224.381 129.915C224.287 130.29 224.14 130.598 223.93 130.844C223.724 131.09 223.438 131.282 223.081 131.425C222.723 131.568 222.268 131.662 221.718 131.706C221.164 131.751 220.498 131.769 219.712 131.769C218.93 131.769 218.26 131.733 217.706 131.662C217.152 131.59 216.696 131.474 216.343 131.318C215.985 131.161 215.704 130.965 215.494 130.737C215.288 130.509 215.15 130.232 215.078 129.915L202.568 84.4697H202.501V129.955C202.501 130.245 202.438 130.504 202.313 130.732C202.188 130.965 201.951 131.152 201.603 131.295C201.259 131.438 200.812 131.554 200.271 131.639C199.731 131.724 199.034 131.769 198.18 131.769C197.349 131.769 196.661 131.724 196.107 131.639C195.553 131.554 195.111 131.438 194.775 131.295C194.44 131.152 194.212 130.965 194.083 130.732C193.958 130.504 193.891 130.245 193.891 129.955V80.1491C193.891 78.6791 194.203 77.5576 194.825 76.7802C195.446 76.0027 196.277 75.614 197.313 75.614H203.256C204.315 75.614 205.226 75.7212 205.986 75.9402C206.745 76.1546 207.402 76.5165 207.956 77.0214C208.51 77.5263 208.971 78.1876 209.337 79.0097C209.703 79.8319 210.029 80.8461 210.306 82.057L219.984 115.362H220.123L230.145 82.1419C230.444 80.931 230.77 79.9123 231.128 79.0768C231.485 78.2412 231.901 77.5665 232.37 77.0482C232.844 76.5299 233.402 76.1636 234.045 75.9446C234.689 75.7301 235.439 75.6185 236.293 75.6185H242.41C243.031 75.6185 243.567 75.7212 244.018 75.9223C244.469 76.1233 244.836 76.4182 245.126 76.807C245.412 77.1957 245.631 77.6693 245.783 78.2323C245.931 78.7953 246.007 79.4342 246.007 80.1536V129.955H246.015Z"
        fill="#292626" />
    <path
        d="M285.522 130.174C285.522 130.576 285.379 130.893 285.089 131.125C284.798 131.358 284.347 131.519 283.731 131.621C283.109 131.72 282.198 131.773 280.987 131.773C279.691 131.773 278.749 131.724 278.159 131.621C277.569 131.519 277.149 131.353 276.908 131.125C276.662 130.898 276.541 130.58 276.541 130.174V127.109C274.955 128.807 273.15 130.134 271.122 131.081C269.093 132.033 266.837 132.506 264.361 132.506C262.315 132.506 260.438 132.238 258.723 131.706C257.011 131.175 255.528 130.384 254.272 129.329C253.021 128.279 252.047 126.975 251.355 125.42C250.662 123.865 250.318 122.051 250.318 119.978C250.318 117.73 250.756 115.782 251.636 114.124C252.517 112.467 253.826 111.1 255.568 110.023C257.311 108.941 259.478 108.142 262.069 107.623C264.661 107.105 267.672 106.846 271.099 106.846H274.857V104.514C274.857 103.303 274.732 102.244 274.491 101.337C274.245 100.43 273.843 99.6746 273.28 99.067C272.717 98.4638 271.971 98.017 271.032 97.7265C270.094 97.4406 268.937 97.2931 267.556 97.2931C265.742 97.2931 264.12 97.4942 262.695 97.8963C261.269 98.2985 260.009 98.7453 258.915 99.2368C257.82 99.7282 256.904 100.175 256.171 100.577C255.439 100.979 254.84 101.18 254.38 101.18C254.062 101.18 253.781 101.078 253.535 100.877C253.289 100.675 253.088 100.385 252.932 100.014C252.776 99.6389 252.651 99.1787 252.566 98.6336C252.481 98.0885 252.436 97.4808 252.436 96.8195C252.436 95.9259 252.508 95.22 252.651 94.7017C252.794 94.1834 253.066 93.7142 253.473 93.2987C253.875 92.8831 254.581 92.4185 255.591 91.918C256.596 91.4131 257.78 90.944 259.134 90.515C260.488 90.0816 261.962 89.7287 263.562 89.4561C265.161 89.1836 266.81 89.0451 268.508 89.0451C271.533 89.0451 274.115 89.3399 276.26 89.9297C278.405 90.5195 280.17 91.4265 281.55 92.6508C282.931 93.8751 283.941 95.4523 284.575 97.3825C285.21 99.3127 285.527 101.6 285.527 104.25V130.174H285.522ZM274.852 113.669H270.706C268.95 113.669 267.453 113.798 266.216 114.057C264.978 114.317 263.968 114.705 263.191 115.224C262.413 115.742 261.846 116.367 261.484 117.105C261.122 117.837 260.943 118.682 260.943 119.634C260.943 121.247 261.453 122.516 262.476 123.436C263.499 124.356 264.915 124.817 266.729 124.817C268.258 124.817 269.661 124.428 270.943 123.65C272.225 122.873 273.525 121.734 274.852 120.237V113.669Z"
        fill="#292626" />
    <path
        d="M321.115 95.0948C321.115 96.1314 321.084 96.9804 321.03 97.6416C320.972 98.3029 320.887 98.8212 320.771 99.1966C320.655 99.5719 320.503 99.831 320.32 99.974C320.132 100.117 319.895 100.188 319.605 100.188C319.372 100.188 319.113 100.139 318.827 100.037C318.537 99.9338 318.215 99.8265 317.853 99.7104C317.491 99.5942 317.098 99.487 316.665 99.3842C316.231 99.2814 315.758 99.2323 315.24 99.2323C314.636 99.2323 314.029 99.3529 313.425 99.5987C312.822 99.8444 312.197 100.224 311.544 100.742C310.897 101.261 310.222 101.953 309.516 102.816C308.81 103.678 308.055 104.746 307.246 106.01V130.026C307.246 130.317 307.161 130.567 306.987 130.781C306.813 130.996 306.518 131.179 306.102 131.322C305.687 131.465 305.133 131.572 304.44 131.644C303.748 131.715 302.872 131.751 301.804 131.751C300.736 131.751 299.86 131.715 299.168 131.644C298.475 131.572 297.921 131.465 297.506 131.322C297.086 131.179 296.791 131 296.621 130.781C296.447 130.567 296.362 130.312 296.362 130.026V91.4935C296.362 91.2076 296.433 90.9529 296.576 90.7384C296.719 90.524 296.978 90.3408 297.354 90.1978C297.729 90.0548 298.212 89.9476 298.801 89.8716C299.391 89.8001 300.133 89.7644 301.027 89.7644C301.947 89.7644 302.711 89.8001 303.314 89.8716C303.917 89.9431 304.387 90.0504 304.717 90.1978C305.048 90.3408 305.285 90.524 305.432 90.7384C305.575 90.9529 305.647 91.2076 305.647 91.4935V96.2878C306.652 94.8491 307.604 93.6606 308.497 92.7223C309.391 91.7884 310.24 91.0467 311.044 90.4972C311.848 89.9521 312.657 89.5678 313.461 89.3533C314.265 89.1389 315.074 89.0272 315.878 89.0272C316.254 89.0272 316.656 89.0495 317.089 89.0942C317.523 89.1389 317.965 89.2104 318.43 89.3087C318.89 89.4114 319.292 89.5231 319.641 89.6527C319.989 89.7823 320.239 89.9208 320.396 90.0638C320.552 90.2068 320.668 90.3676 320.74 90.5374C320.811 90.7117 320.874 90.9485 320.932 91.2523C320.99 91.5561 321.03 92.0074 321.061 92.615C321.102 93.2406 321.115 94.0582 321.115 95.0948Z"
        fill="#292626" />
    <path
        d="M363.62 130.16C363.62 130.437 363.54 130.679 363.383 130.884C363.227 131.09 362.936 131.255 362.521 131.38C362.105 131.505 361.533 131.599 360.814 131.671C360.095 131.738 359.156 131.773 358.008 131.773C356.828 131.773 355.868 131.747 355.135 131.693C354.402 131.639 353.795 131.55 353.321 131.425C352.847 131.3 352.477 131.13 352.217 130.907C351.958 130.688 351.726 130.397 351.525 130.04L338.697 110.613V130.125C338.697 130.402 338.612 130.643 338.438 130.848C338.264 131.054 337.969 131.228 337.553 131.367C337.138 131.505 336.584 131.608 335.891 131.675C335.198 131.742 334.323 131.778 333.255 131.778C332.187 131.778 331.311 131.742 330.619 131.675C329.926 131.608 329.372 131.505 328.957 131.367C328.537 131.228 328.242 131.058 328.072 130.848C327.898 130.643 327.813 130.402 327.813 130.125V75.757C327.813 75.48 327.898 75.2342 328.072 75.0108C328.246 74.7919 328.541 74.6042 328.957 74.4523C329.372 74.3004 329.926 74.1842 330.619 74.0993C331.311 74.0144 332.187 73.9742 333.255 73.9742C334.318 73.9742 335.198 74.0144 335.891 74.0993C336.584 74.1842 337.138 74.3004 337.553 74.4523C337.969 74.6042 338.268 74.7919 338.438 75.0108C338.612 75.2297 338.697 75.48 338.697 75.757V108.124L350.1 93.4506C350.327 93.1199 350.587 92.8295 350.877 92.5838C351.163 92.3336 351.547 92.1414 352.021 92.0029C352.494 91.8644 353.084 91.7617 353.79 91.6946C354.496 91.6276 355.394 91.5919 356.489 91.5919C357.552 91.5919 358.455 91.6276 359.188 91.6946C359.92 91.7617 360.51 91.8689 360.957 92.0029C361.404 92.1414 361.712 92.3112 361.886 92.5212C362.061 92.7312 362.145 92.9814 362.145 93.2853C362.145 93.7008 362.038 94.1387 361.819 94.6078C361.605 95.077 361.279 95.5729 360.85 96.0957L349.577 108.334L362.624 127.64C362.968 128.19 363.222 128.668 363.379 129.066C363.54 129.463 363.62 129.83 363.62 130.16Z"
        fill="#292626" />
    <path
        d="M403.448 109.652C403.448 110.979 403.154 111.957 402.564 112.587C401.974 113.222 401.161 113.539 400.124 113.539H376.667C376.667 115.179 376.863 116.671 377.248 118.012C377.636 119.352 378.257 120.487 379.106 121.425C379.955 122.359 381.05 123.074 382.39 123.565C383.731 124.057 385.335 124.298 387.207 124.298C389.106 124.298 390.777 124.164 392.216 123.887C393.654 123.615 394.901 123.311 395.951 122.98C397.001 122.65 397.872 122.346 398.565 122.073C399.257 121.801 399.816 121.662 400.249 121.662C400.508 121.662 400.723 121.711 400.897 121.814C401.071 121.917 401.214 122.095 401.331 122.355C401.447 122.614 401.523 122.98 401.567 123.454C401.612 123.927 401.63 124.526 401.63 125.245C401.63 125.88 401.617 126.421 401.585 126.867C401.554 127.314 401.514 127.694 401.456 128.011C401.398 128.328 401.313 128.597 401.197 128.811C401.08 129.025 400.928 129.236 400.741 129.437C400.553 129.638 400.044 129.91 399.208 130.259C398.373 130.603 397.309 130.942 396.014 131.273C394.718 131.604 393.234 131.89 391.563 132.135C389.892 132.381 388.11 132.502 386.206 132.502C382.779 132.502 379.777 132.068 377.198 131.206C374.62 130.344 372.467 129.03 370.742 127.274C369.013 125.518 367.726 123.302 366.877 120.621C366.028 117.945 365.604 114.804 365.604 111.202C365.604 107.775 366.051 104.688 366.944 101.935C367.838 99.1876 369.134 96.8553 370.831 94.9385C372.529 93.0216 374.598 91.5606 377.029 90.5553C379.464 89.5455 382.203 89.0451 385.259 89.0451C388.485 89.0451 391.242 89.5187 393.529 90.4704C395.817 91.4221 397.698 92.7401 399.168 94.4246C400.638 96.1091 401.715 98.1019 402.407 100.407C403.1 102.713 403.444 105.215 403.444 107.923V109.652H403.448ZM392.908 106.542C392.993 103.49 392.381 101.091 391.072 99.3485C389.763 97.6059 387.739 96.7346 385.004 96.7346C383.624 96.7346 382.417 96.9938 381.398 97.5121C380.375 98.0304 379.526 98.7274 378.852 99.6076C378.173 100.488 377.654 101.524 377.297 102.717C376.935 103.915 376.729 105.188 376.671 106.542H392.908Z"
        fill="#292626" />
    <path
        d="M434.596 126.242C434.596 127.511 434.515 128.48 434.359 129.16C434.198 129.839 433.992 130.312 433.733 130.585C433.474 130.857 433.09 131.103 432.589 131.318C432.084 131.532 431.495 131.72 430.82 131.881C430.141 132.037 429.408 132.162 428.617 132.247C427.826 132.332 427.027 132.377 426.218 132.377C424.06 132.377 422.188 132.104 420.601 131.554C419.015 131.009 417.706 130.165 416.67 129.025C415.633 127.886 414.869 126.456 414.382 124.727C413.89 122.998 413.649 120.956 413.649 118.593V98.8525H409.029C408.48 98.8525 408.064 98.5129 407.778 97.8382C407.488 97.1636 407.345 96.0331 407.345 94.447C407.345 93.6114 407.38 92.9055 407.452 92.3291C407.523 91.7527 407.631 91.3014 407.778 90.9663C407.921 90.6357 408.104 90.3989 408.319 90.2514C408.533 90.1085 408.788 90.037 409.074 90.037H413.654V81.4404C413.654 81.1544 413.734 80.8953 413.89 80.6629C414.047 80.4306 414.337 80.2384 414.753 80.0776C415.168 79.9212 415.731 79.805 416.437 79.7336C417.143 79.6621 418.014 79.6263 419.051 79.6263C420.114 79.6263 421.004 79.6621 421.71 79.7336C422.416 79.805 422.97 79.9212 423.372 80.0776C423.774 80.234 424.064 80.4306 424.234 80.6629C424.408 80.8953 424.493 81.1544 424.493 81.4404V90.037H432.875C433.161 90.037 433.416 90.1085 433.63 90.2514C433.845 90.3944 434.028 90.6312 434.171 90.9663C434.314 91.297 434.421 91.7527 434.493 92.3291C434.564 92.9055 434.6 93.6114 434.6 94.447C434.6 96.0331 434.457 97.1636 434.167 97.8382C433.876 98.5174 433.461 98.8525 432.916 98.8525H424.493V116.953C424.493 119.057 424.824 120.63 425.485 121.684C426.146 122.734 427.326 123.262 429.028 123.262C429.605 123.262 430.123 123.213 430.583 123.11C431.043 123.011 431.454 122.895 431.812 122.766C432.174 122.636 432.473 122.52 432.719 122.422C432.965 122.323 433.188 122.27 433.389 122.27C433.563 122.27 433.729 122.319 433.885 122.422C434.041 122.524 434.167 122.725 434.251 123.025C434.336 123.329 434.417 123.74 434.488 124.258C434.555 124.772 434.596 125.438 434.596 126.242Z"
        fill="#292626" />
</svg>
